<svg preserveAspectRatio="none" width="100%" height="100%" overflow="visible" style="display: block;" viewBox="0 0 56 56" fill="none" xmlns="http://www.w3.org/2000/svg">
<g id="QR Code">
<g id="Vector">
</g>
<g id="Vector_2">
<path d="M5.18966 3.5H3.5V5.18966H5.18966V3.5Z" fill="var(--fill-0, #5B5855)"/>
<path d="M6.87931 3.5H5.18966V5.18966H6.87931V3.5Z" fill="var(--fill-0, #5B5855)"/>
<path d="M8.56897 3.5H6.87931V5.18966H8.56897V3.5Z" fill="var(--fill-0, #5B5855)"/>
<path d="M10.2586 3.5H8.56897V5.18966H10.2586V3.5Z" fill="var(--fill-0, #5B5855)"/>
<path d="M11.9483 3.5H10.2586V5.18966H11.9483V3.5Z" fill="var(--fill-0, #5B5855)"/>
<path d="M13.6379 3.5H11.9483V5.18966H13.6379V3.5Z" fill="var(--fill-0, #5B5855)"/>
<path d="M15.3276 3.5H13.6379V5.18966H15.3276V3.5Z" fill="var(--fill-0, #5B5855)"/>
<path d="M18.7069 3.5H17.0172V5.18966H18.7069V3.5Z" fill="var(--fill-0, #5B5855)"/>
<path d="M20.3966 3.5H18.7069V5.18966H20.3966V3.5Z" fill="var(--fill-0, #5B5855)"/>
<path d="M22.0862 3.5H20.3966V5.18966H22.0862V3.5Z" fill="var(--fill-0, #5B5855)"/>
<path d="M23.7759 3.5H22.0862V5.18966H23.7759V3.5Z" fill="var(--fill-0, #5B5855)"/>
<path d="M27.1552 3.5H25.4655V5.18966H27.1552V3.5Z" fill="var(--fill-0, #5B5855)"/>
<path d="M28.8448 3.5H27.1552V5.18966H28.8448V3.5Z" fill="var(--fill-0, #5B5855)"/>
<path d="M30.5345 3.5H28.8448V5.18966H30.5345V3.5Z" fill="var(--fill-0, #5B5855)"/>
<path d="M33.9138 3.5H32.2241V5.18966H33.9138V3.5Z" fill="var(--fill-0, #5B5855)"/>
<path d="M35.6034 3.5H33.9138V5.18966H35.6034V3.5Z" fill="var(--fill-0, #5B5855)"/>
<path d="M37.2931 3.5H35.6034V5.18966H37.2931V3.5Z" fill="var(--fill-0, #5B5855)"/>
<path d="M38.9828 3.5H37.2931V5.18966H38.9828V3.5Z" fill="var(--fill-0, #5B5855)"/>
<path d="M42.3621 3.5H40.6724V5.18966H42.3621V3.5Z" fill="var(--fill-0, #5B5855)"/>
<path d="M44.0517 3.5H42.3621V5.18966H44.0517V3.5Z" fill="var(--fill-0, #5B5855)"/>
<path d="M45.7414 3.5H44.0517V5.18966H45.7414V3.5Z" fill="var(--fill-0, #5B5855)"/>
<path d="M47.431 3.5H45.7414V5.18966H47.431V3.5Z" fill="var(--fill-0, #5B5855)"/>
<path d="M49.1207 3.5H47.431V5.18966H49.1207V3.5Z" fill="var(--fill-0, #5B5855)"/>
<path d="M50.8103 3.5H49.1207V5.18966H50.8103V3.5Z" fill="var(--fill-0, #5B5855)"/>
<path d="M52.5 3.5H50.8103V5.18966H52.5V3.5Z" fill="var(--fill-0, #5B5855)"/>
<path d="M5.18966 5.18966H3.5V6.87931H5.18966V5.18966Z" fill="var(--fill-0, #5B5855)"/>
<path d="M15.3276 5.18966H13.6379V6.87931H15.3276V5.18966Z" fill="var(--fill-0, #5B5855)"/>
<path d="M20.3966 5.18966H18.7069V6.87931H20.3966V5.18966Z" fill="var(--fill-0, #5B5855)"/>
<path d="M22.0862 5.18966H20.3966V6.87931H22.0862V5.18966Z" fill="var(--fill-0, #5B5855)"/>
<path d="M23.7759 5.18966H22.0862V6.87931H23.7759V5.18966Z" fill="var(--fill-0, #5B5855)"/>
<path d="M28.8448 5.18966H27.1552V6.87931H28.8448V5.18966Z" fill="var(--fill-0, #5B5855)"/>
<path d="M30.5345 5.18966H28.8448V6.87931H30.5345V5.18966Z" fill="var(--fill-0, #5B5855)"/>
<path d="M35.6034 5.18966H33.9138V6.87931H35.6034V5.18966Z" fill="var(--fill-0, #5B5855)"/>
<path d="M37.2931 5.18966H35.6034V6.87931H37.2931V5.18966Z" fill="var(--fill-0, #5B5855)"/>
<path d="M38.9828 5.18966H37.2931V6.87931H38.9828V5.18966Z" fill="var(--fill-0, #5B5855)"/>
<path d="M42.3621 5.18966H40.6724V6.87931H42.3621V5.18966Z" fill="var(--fill-0, #5B5855)"/>
<path d="M52.5 5.18966H50.8103V6.87931H52.5V5.18966Z" fill="var(--fill-0, #5B5855)"/>
<path d="M5.18966 6.87931H3.5V8.56897H5.18966V6.87931Z" fill="var(--fill-0, #5B5855)"/>
<path d="M8.56897 6.87931H6.87931V8.56897H8.56897V6.87931Z" fill="var(--fill-0, #5B5855)"/>
<path d="M10.2586 6.87931H8.56897V8.56897H10.2586V6.87931Z" fill="var(--fill-0, #5B5855)"/>
<path d="M11.9483 6.87931H10.2586V8.56897H11.9483V6.87931Z" fill="var(--fill-0, #5B5855)"/>
<path d="M15.3276 6.87931H13.6379V8.56897H15.3276V6.87931Z" fill="var(--fill-0, #5B5855)"/>
<path d="M20.3966 6.87931H18.7069V8.56897H20.3966V6.87931Z" fill="var(--fill-0, #5B5855)"/>
<path d="M22.0862 6.87931H20.3966V8.56897H22.0862V6.87931Z" fill="var(--fill-0, #5B5855)"/>
<path d="M23.7759 6.87931H22.0862V8.56897H23.7759V6.87931Z" fill="var(--fill-0, #5B5855)"/>
<path d="M27.1552 6.87931H25.4655V8.56897H27.1552V6.87931Z" fill="var(--fill-0, #5B5855)"/>
<path d="M32.2241 6.87931H30.5345V8.56897H32.2241V6.87931Z" fill="var(--fill-0, #5B5855)"/>
<path d="M37.2931 6.87931H35.6034V8.56897H37.2931V6.87931Z" fill="var(--fill-0, #5B5855)"/>
<path d="M42.3621 6.87931H40.6724V8.56897H42.3621V6.87931Z" fill="var(--fill-0, #5B5855)"/>
<path d="M45.7414 6.87931H44.0517V8.56897H45.7414V6.87931Z" fill="var(--fill-0, #5B5855)"/>
<path d="M47.431 6.87931H45.7414V8.56897H47.431V6.87931Z" fill="var(--fill-0, #5B5855)"/>
<path d="M49.1207 6.87931H47.431V8.56897H49.1207V6.87931Z" fill="var(--fill-0, #5B5855)"/>
<path d="M52.5 6.87931H50.8103V8.56897H52.5V6.87931Z" fill="var(--fill-0, #5B5855)"/>
<path d="M5.18966 8.56897H3.5V10.2586H5.18966V8.56897Z" fill="var(--fill-0, #5B5855)"/>
<path d="M8.56897 8.56897H6.87931V10.2586H8.56897V8.56897Z" fill="var(--fill-0, #5B5855)"/>
<path d="M10.2586 8.56897H8.56897V10.2586H10.2586V8.56897Z" fill="var(--fill-0, #5B5855)"/>
<path d="M11.9483 8.56897H10.2586V10.2586H11.9483V8.56897Z" fill="var(--fill-0, #5B5855)"/>
<path d="M15.3276 8.56897H13.6379V10.2586H15.3276V8.56897Z" fill="var(--fill-0, #5B5855)"/>
<path d="M18.7069 8.56897H17.0172V10.2586H18.7069V8.56897Z" fill="var(--fill-0, #5B5855)"/>
<path d="M22.0862 8.56897H20.3966V10.2586H22.0862V8.56897Z" fill="var(--fill-0, #5B5855)"/>
<path d="M25.4655 8.56897H23.7759V10.2586H25.4655V8.56897Z" fill="var(--fill-0, #5B5855)"/>
<path d="M28.8448 8.56897H27.1552V10.2586H28.8448V8.56897Z" fill="var(--fill-0, #5B5855)"/>
<path d="M30.5345 8.56897H28.8448V10.2586H30.5345V8.56897Z" fill="var(--fill-0, #5B5855)"/>
<path d="M32.2241 8.56897H30.5345V10.2586H32.2241V8.56897Z" fill="var(--fill-0, #5B5855)"/>
<path d="M37.2931 8.56897H35.6034V10.2586H37.2931V8.56897Z" fill="var(--fill-0, #5B5855)"/>
<path d="M38.9828 8.56897H37.2931V10.2586H38.9828V8.56897Z" fill="var(--fill-0, #5B5855)"/>
<path d="M42.3621 8.56897H40.6724V10.2586H42.3621V8.56897Z" fill="var(--fill-0, #5B5855)"/>
<path d="M45.7414 8.56897H44.0517V10.2586H45.7414V8.56897Z" fill="var(--fill-0, #5B5855)"/>
<path d="M47.431 8.56897H45.7414V10.2586H47.431V8.56897Z" fill="var(--fill-0, #5B5855)"/>
<path d="M49.1207 8.56897H47.431V10.2586H49.1207V8.56897Z" fill="var(--fill-0, #5B5855)"/>
<path d="M52.5 8.56897H50.8103V10.2586H52.5V8.56897Z" fill="var(--fill-0, #5B5855)"/>
<path d="M5.18966 10.2586H3.5V11.9483H5.18966V10.2586Z" fill="var(--fill-0, #5B5855)"/>
<path d="M8.56897 10.2586H6.87931V11.9483H8.56897V10.2586Z" fill="var(--fill-0, #5B5855)"/>
<path d="M10.2586 10.2586H8.56897V11.9483H10.2586V10.2586Z" fill="var(--fill-0, #5B5855)"/>
<path d="M11.9483 10.2586H10.2586V11.9483H11.9483V10.2586Z" fill="var(--fill-0, #5B5855)"/>
<path d="M15.3276 10.2586H13.6379V11.9483H15.3276V10.2586Z" fill="var(--fill-0, #5B5855)"/>
<path d="M18.7069 10.2586H17.0172V11.9483H18.7069V10.2586Z" fill="var(--fill-0, #5B5855)"/>
<path d="M20.3966 10.2586H18.7069V11.9483H20.3966V10.2586Z" fill="var(--fill-0, #5B5855)"/>
<path d="M25.4655 10.2586H23.7759V11.9483H25.4655V10.2586Z" fill="var(--fill-0, #5B5855)"/>
<path d="M27.1552 10.2586H25.4655V11.9483H27.1552V10.2586Z" fill="var(--fill-0, #5B5855)"/>
<path d="M32.2241 10.2586H30.5345V11.9483H32.2241V10.2586Z" fill="var(--fill-0, #5B5855)"/>
<path d="M33.9138 10.2586H32.2241V11.9483H33.9138V10.2586Z" fill="var(--fill-0, #5B5855)"/>
<path d="M35.6034 10.2586H33.9138V11.9483H35.6034V10.2586Z" fill="var(--fill-0, #5B5855)"/>
<path d="M38.9828 10.2586H37.2931V11.9483H38.9828V10.2586Z" fill="var(--fill-0, #5B5855)"/>
<path d="M42.3621 10.2586H40.6724V11.9483H42.3621V10.2586Z" fill="var(--fill-0, #5B5855)"/>
<path d="M45.7414 10.2586H44.0517V11.9483H45.7414V10.2586Z" fill="var(--fill-0, #5B5855)"/>
<path d="M47.431 10.2586H45.7414V11.9483H47.431V10.2586Z" fill="var(--fill-0, #5B5855)"/>
<path d="M49.1207 10.2586H47.431V11.9483H49.1207V10.2586Z" fill="var(--fill-0, #5B5855)"/>
<path d="M52.5 10.2586H50.8103V11.9483H52.5V10.2586Z" fill="var(--fill-0, #5B5855)"/>
<path d="M5.18966 11.9483H3.5V13.6379H5.18966V11.9483Z" fill="var(--fill-0, #5B5855)"/>
<path d="M15.3276 11.9483H13.6379V13.6379H15.3276V11.9483Z" fill="var(--fill-0, #5B5855)"/>
<path d="M18.7069 11.9483H17.0172V13.6379H18.7069V11.9483Z" fill="var(--fill-0, #5B5855)"/>
<path d="M20.3966 11.9483H18.7069V13.6379H20.3966V11.9483Z" fill="var(--fill-0, #5B5855)"/>
<path d="M22.0862 11.9483H20.3966V13.6379H22.0862V11.9483Z" fill="var(--fill-0, #5B5855)"/>
<path d="M25.4655 11.9483H23.7759V13.6379H25.4655V11.9483Z" fill="var(--fill-0, #5B5855)"/>
<path d="M27.1552 11.9483H25.4655V13.6379H27.1552V11.9483Z" fill="var(--fill-0, #5B5855)"/>
<path d="M35.6034 11.9483H33.9138V13.6379H35.6034V11.9483Z" fill="var(--fill-0, #5B5855)"/>
<path d="M37.2931 11.9483H35.6034V13.6379H37.2931V11.9483Z" fill="var(--fill-0, #5B5855)"/>
<path d="M42.3621 11.9483H40.6724V13.6379H42.3621V11.9483Z" fill="var(--fill-0, #5B5855)"/>
<path d="M52.5 11.9483H50.8103V13.6379H52.5V11.9483Z" fill="var(--fill-0, #5B5855)"/>
<path d="M5.18966 13.6379H3.5V15.3276H5.18966V13.6379Z" fill="var(--fill-0, #5B5855)"/>
<path d="M6.87931 13.6379H5.18966V15.3276H6.87931V13.6379Z" fill="var(--fill-0, #5B5855)"/>
<path d="M8.56897 13.6379H6.87931V15.3276H8.56897V13.6379Z" fill="var(--fill-0, #5B5855)"/>
<path d="M10.2586 13.6379H8.56897V15.3276H10.2586V13.6379Z" fill="var(--fill-0, #5B5855)"/>
<path d="M11.9483 13.6379H10.2586V15.3276H11.9483V13.6379Z" fill="var(--fill-0, #5B5855)"/>
<path d="M13.6379 13.6379H11.9483V15.3276H13.6379V13.6379Z" fill="var(--fill-0, #5B5855)"/>
<path d="M15.3276 13.6379H13.6379V15.3276H15.3276V13.6379Z" fill="var(--fill-0, #5B5855)"/>
<path d="M18.7069 13.6379H17.0172V15.3276H18.7069V13.6379Z" fill="var(--fill-0, #5B5855)"/>
<path d="M22.0862 13.6379H20.3966V15.3276H22.0862V13.6379Z" fill="var(--fill-0, #5B5855)"/>
<path d="M25.4655 13.6379H23.7759V15.3276H25.4655V13.6379Z" fill="var(--fill-0, #5B5855)"/>
<path d="M28.8448 13.6379H27.1552V15.3276H28.8448V13.6379Z" fill="var(--fill-0, #5B5855)"/>
<path d="M32.2241 13.6379H30.5345V15.3276H32.2241V13.6379Z" fill="var(--fill-0, #5B5855)"/>
<path d="M35.6034 13.6379H33.9138V15.3276H35.6034V13.6379Z" fill="var(--fill-0, #5B5855)"/>
<path d="M38.9828 13.6379H37.2931V15.3276H38.9828V13.6379Z" fill="var(--fill-0, #5B5855)"/>
<path d="M42.3621 13.6379H40.6724V15.3276H42.3621V13.6379Z" fill="var(--fill-0, #5B5855)"/>
<path d="M44.0517 13.6379H42.3621V15.3276H44.0517V13.6379Z" fill="var(--fill-0, #5B5855)"/>
<path d="M45.7414 13.6379H44.0517V15.3276H45.7414V13.6379Z" fill="var(--fill-0, #5B5855)"/>
<path d="M47.431 13.6379H45.7414V15.3276H47.431V13.6379Z" fill="var(--fill-0, #5B5855)"/>
<path d="M49.1207 13.6379H47.431V15.3276H49.1207V13.6379Z" fill="var(--fill-0, #5B5855)"/>
<path d="M50.8103 13.6379H49.1207V15.3276H50.8103V13.6379Z" fill="var(--fill-0, #5B5855)"/>
<path d="M52.5 13.6379H50.8103V15.3276H52.5V13.6379Z" fill="var(--fill-0, #5B5855)"/>
<path d="M18.7069 15.3276H17.0172V17.0172H18.7069V15.3276Z" fill="var(--fill-0, #5B5855)"/>
<path d="M20.3966 15.3276H18.7069V17.0172H20.3966V15.3276Z" fill="var(--fill-0, #5B5855)"/>
<path d="M22.0862 15.3276H20.3966V17.0172H22.0862V15.3276Z" fill="var(--fill-0, #5B5855)"/>
<path d="M23.7759 15.3276H22.0862V17.0172H23.7759V15.3276Z" fill="var(--fill-0, #5B5855)"/>
<path d="M25.4655 15.3276H23.7759V17.0172H25.4655V15.3276Z" fill="var(--fill-0, #5B5855)"/>
<path d="M27.1552 15.3276H25.4655V17.0172H27.1552V15.3276Z" fill="var(--fill-0, #5B5855)"/>
<path d="M30.5345 15.3276H28.8448V17.0172H30.5345V15.3276Z" fill="var(--fill-0, #5B5855)"/>
<path d="M37.2931 15.3276H35.6034V17.0172H37.2931V15.3276Z" fill="var(--fill-0, #5B5855)"/>
<path d="M38.9828 15.3276H37.2931V17.0172H38.9828V15.3276Z" fill="var(--fill-0, #5B5855)"/>
<path d="M5.18966 17.0172H3.5V18.7069H5.18966V17.0172Z" fill="var(--fill-0, #5B5855)"/>
<path d="M6.87931 17.0172H5.18966V18.7069H6.87931V17.0172Z" fill="var(--fill-0, #5B5855)"/>
<path d="M8.56897 17.0172H6.87931V18.7069H8.56897V17.0172Z" fill="var(--fill-0, #5B5855)"/>
<path d="M11.9483 17.0172H10.2586V18.7069H11.9483V17.0172Z" fill="var(--fill-0, #5B5855)"/>
<path d="M15.3276 17.0172H13.6379V18.7069H15.3276V17.0172Z" fill="var(--fill-0, #5B5855)"/>
<path d="M18.7069 17.0172H17.0172V18.7069H18.7069V17.0172Z" fill="var(--fill-0, #5B5855)"/>
<path d="M20.3966 17.0172H18.7069V18.7069H20.3966V17.0172Z" fill="var(--fill-0, #5B5855)"/>
<path d="M22.0862 17.0172H20.3966V18.7069H22.0862V17.0172Z" fill="var(--fill-0, #5B5855)"/>
<path d="M25.4655 17.0172H23.7759V18.7069H25.4655V17.0172Z" fill="var(--fill-0, #5B5855)"/>
<path d="M27.1552 17.0172H25.4655V18.7069H27.1552V17.0172Z" fill="var(--fill-0, #5B5855)"/>
<path d="M32.2241 17.0172H30.5345V18.7069H32.2241V17.0172Z" fill="var(--fill-0, #5B5855)"/>
<path d="M33.9138 17.0172H32.2241V18.7069H33.9138V17.0172Z" fill="var(--fill-0, #5B5855)"/>
<path d="M35.6034 17.0172H33.9138V18.7069H35.6034V17.0172Z" fill="var(--fill-0, #5B5855)"/>
<path d="M37.2931 17.0172H35.6034V18.7069H37.2931V17.0172Z" fill="var(--fill-0, #5B5855)"/>
<path d="M40.6724 17.0172H38.9828V18.7069H40.6724V17.0172Z" fill="var(--fill-0, #5B5855)"/>
<path d="M42.3621 17.0172H40.6724V18.7069H42.3621V17.0172Z" fill="var(--fill-0, #5B5855)"/>
<path d="M44.0517 17.0172H42.3621V18.7069H44.0517V17.0172Z" fill="var(--fill-0, #5B5855)"/>
<path d="M45.7414 17.0172H44.0517V18.7069H45.7414V17.0172Z" fill="var(--fill-0, #5B5855)"/>
<path d="M47.431 17.0172H45.7414V18.7069H47.431V17.0172Z" fill="var(--fill-0, #5B5855)"/>
<path d="M52.5 17.0172H50.8103V18.7069H52.5V17.0172Z" fill="var(--fill-0, #5B5855)"/>
<path d="M5.18966 18.7069H3.5V20.3966H5.18966V18.7069Z" fill="var(--fill-0, #5B5855)"/>
<path d="M6.87931 18.7069H5.18966V20.3966H6.87931V18.7069Z" fill="var(--fill-0, #5B5855)"/>
<path d="M8.56897 18.7069H6.87931V20.3966H8.56897V18.7069Z" fill="var(--fill-0, #5B5855)"/>
<path d="M10.2586 18.7069H8.56897V20.3966H10.2586V18.7069Z" fill="var(--fill-0, #5B5855)"/>
<path d="M13.6379 18.7069H11.9483V20.3966H13.6379V18.7069Z" fill="var(--fill-0, #5B5855)"/>
<path d="M17.0172 18.7069H15.3276V20.3966H17.0172V18.7069Z" fill="var(--fill-0, #5B5855)"/>
<path d="M22.0862 18.7069H20.3966V20.3966H22.0862V18.7069Z" fill="var(--fill-0, #5B5855)"/>
<path d="M27.1552 18.7069H25.4655V20.3966H27.1552V18.7069Z" fill="var(--fill-0, #5B5855)"/>
<path d="M28.8448 18.7069H27.1552V20.3966H28.8448V18.7069Z" fill="var(--fill-0, #5B5855)"/>
<path d="M32.2241 18.7069H30.5345V20.3966H32.2241V18.7069Z" fill="var(--fill-0, #5B5855)"/>
<path d="M33.9138 18.7069H32.2241V20.3966H33.9138V18.7069Z" fill="var(--fill-0, #5B5855)"/>
<path d="M35.6034 18.7069H33.9138V20.3966H35.6034V18.7069Z" fill="var(--fill-0, #5B5855)"/>
<path d="M37.2931 18.7069H35.6034V20.3966H37.2931V18.7069Z" fill="var(--fill-0, #5B5855)"/>
<path d="M38.9828 18.7069H37.2931V20.3966H38.9828V18.7069Z" fill="var(--fill-0, #5B5855)"/>
<path d="M40.6724 18.7069H38.9828V20.3966H40.6724V18.7069Z" fill="var(--fill-0, #5B5855)"/>
<path d="M44.0517 18.7069H42.3621V20.3966H44.0517V18.7069Z" fill="var(--fill-0, #5B5855)"/>
<path d="M45.7414 18.7069H44.0517V20.3966H45.7414V18.7069Z" fill="var(--fill-0, #5B5855)"/>
<path d="M47.431 18.7069H45.7414V20.3966H47.431V18.7069Z" fill="var(--fill-0, #5B5855)"/>
<path d="M50.8103 18.7069H49.1207V20.3966H50.8103V18.7069Z" fill="var(--fill-0, #5B5855)"/>
<path d="M52.5 18.7069H50.8103V20.3966H52.5V18.7069Z" fill="var(--fill-0, #5B5855)"/>
<path d="M6.87931 20.3966H5.18966V22.0862H6.87931V20.3966Z" fill="var(--fill-0, #5B5855)"/>
<path d="M10.2586 20.3966H8.56897V22.0862H10.2586V20.3966Z" fill="var(--fill-0, #5B5855)"/>
<path d="M15.3276 20.3966H13.6379V22.0862H15.3276V20.3966Z" fill="var(--fill-0, #5B5855)"/>
<path d="M23.7759 20.3966H22.0862V22.0862H23.7759V20.3966Z" fill="var(--fill-0, #5B5855)"/>
<path d="M25.4655 20.3966H23.7759V22.0862H25.4655V20.3966Z" fill="var(--fill-0, #5B5855)"/>
<path d="M32.2241 20.3966H30.5345V22.0862H32.2241V20.3966Z" fill="var(--fill-0, #5B5855)"/>
<path d="M35.6034 20.3966H33.9138V22.0862H35.6034V20.3966Z" fill="var(--fill-0, #5B5855)"/>
<path d="M42.3621 20.3966H40.6724V22.0862H42.3621V20.3966Z" fill="var(--fill-0, #5B5855)"/>
<path d="M45.7414 20.3966H44.0517V22.0862H45.7414V20.3966Z" fill="var(--fill-0, #5B5855)"/>
<path d="M47.431 20.3966H45.7414V22.0862H47.431V20.3966Z" fill="var(--fill-0, #5B5855)"/>
<path d="M50.8103 20.3966H49.1207V22.0862H50.8103V20.3966Z" fill="var(--fill-0, #5B5855)"/>
<path d="M52.5 20.3966H50.8103V22.0862H52.5V20.3966Z" fill="var(--fill-0, #5B5855)"/>
<path d="M11.9483 22.0862H10.2586V23.7759H11.9483V22.0862Z" fill="var(--fill-0, #5B5855)"/>
<path d="M17.0172 22.0862H15.3276V23.7759H17.0172V22.0862Z" fill="var(--fill-0, #5B5855)"/>
<path d="M18.7069 22.0862H17.0172V23.7759H18.7069V22.0862Z" fill="var(--fill-0, #5B5855)"/>
<path d="M23.7759 22.0862H22.0862V23.7759H23.7759V22.0862Z" fill="var(--fill-0, #5B5855)"/>
<path d="M25.4655 22.0862H23.7759V23.7759H25.4655V22.0862Z" fill="var(--fill-0, #5B5855)"/>
<path d="M32.2241 22.0862H30.5345V23.7759H32.2241V22.0862Z" fill="var(--fill-0, #5B5855)"/>
<path d="M35.6034 22.0862H33.9138V23.7759H35.6034V22.0862Z" fill="var(--fill-0, #5B5855)"/>
<path d="M38.9828 22.0862H37.2931V23.7759H38.9828V22.0862Z" fill="var(--fill-0, #5B5855)"/>
<path d="M40.6724 22.0862H38.9828V23.7759H40.6724V22.0862Z" fill="var(--fill-0, #5B5855)"/>
<path d="M44.0517 22.0862H42.3621V23.7759H44.0517V22.0862Z" fill="var(--fill-0, #5B5855)"/>
<path d="M47.431 22.0862H45.7414V23.7759H47.431V22.0862Z" fill="var(--fill-0, #5B5855)"/>
<path d="M6.87931 23.7759H5.18966V25.4655H6.87931V23.7759Z" fill="var(--fill-0, #5B5855)"/>
<path d="M8.56897 23.7759H6.87931V25.4655H8.56897V23.7759Z" fill="var(--fill-0, #5B5855)"/>
<path d="M10.2586 23.7759H8.56897V25.4655H10.2586V23.7759Z" fill="var(--fill-0, #5B5855)"/>
<path d="M13.6379 23.7759H11.9483V25.4655H13.6379V23.7759Z" fill="var(--fill-0, #5B5855)"/>
<path d="M15.3276 23.7759H13.6379V25.4655H15.3276V23.7759Z" fill="var(--fill-0, #5B5855)"/>
<path d="M18.7069 23.7759H17.0172V25.4655H18.7069V23.7759Z" fill="var(--fill-0, #5B5855)"/>
<path d="M22.0862 23.7759H20.3966V25.4655H22.0862V23.7759Z" fill="var(--fill-0, #5B5855)"/>
<path d="M23.7759 23.7759H22.0862V25.4655H23.7759V23.7759Z" fill="var(--fill-0, #5B5855)"/>
<path d="M28.8448 23.7759H27.1552V25.4655H28.8448V23.7759Z" fill="var(--fill-0, #5B5855)"/>
<path d="M30.5345 23.7759H28.8448V25.4655H30.5345V23.7759Z" fill="var(--fill-0, #5B5855)"/>
<path d="M32.2241 23.7759H30.5345V25.4655H32.2241V23.7759Z" fill="var(--fill-0, #5B5855)"/>
<path d="M35.6034 23.7759H33.9138V25.4655H35.6034V23.7759Z" fill="var(--fill-0, #5B5855)"/>
<path d="M40.6724 23.7759H38.9828V25.4655H40.6724V23.7759Z" fill="var(--fill-0, #5B5855)"/>
<path d="M42.3621 23.7759H40.6724V25.4655H42.3621V23.7759Z" fill="var(--fill-0, #5B5855)"/>
<path d="M45.7414 23.7759H44.0517V25.4655H45.7414V23.7759Z" fill="var(--fill-0, #5B5855)"/>
<path d="M47.431 23.7759H45.7414V25.4655H47.431V23.7759Z" fill="var(--fill-0, #5B5855)"/>
<path d="M49.1207 23.7759H47.431V25.4655H49.1207V23.7759Z" fill="var(--fill-0, #5B5855)"/>
<path d="M50.8103 23.7759H49.1207V25.4655H50.8103V23.7759Z" fill="var(--fill-0, #5B5855)"/>
<path d="M52.5 23.7759H50.8103V25.4655H52.5V23.7759Z" fill="var(--fill-0, #5B5855)"/>
<path d="M17.0172 25.4655H15.3276V27.1552H17.0172V25.4655Z" fill="var(--fill-0, #5B5855)"/>
<path d="M18.7069 25.4655H17.0172V27.1552H18.7069V25.4655Z" fill="var(--fill-0, #5B5855)"/>
<path d="M20.3966 25.4655H18.7069V27.1552H20.3966V25.4655Z" fill="var(--fill-0, #5B5855)"/>
<path d="M22.0862 25.4655H20.3966V27.1552H22.0862V25.4655Z" fill="var(--fill-0, #5B5855)"/>
<path d="M23.7759 25.4655H22.0862V27.1552H23.7759V25.4655Z" fill="var(--fill-0, #5B5855)"/>
<path d="M25.4655 25.4655H23.7759V27.1552H25.4655V25.4655Z" fill="var(--fill-0, #5B5855)"/>
<path d="M27.1552 25.4655H25.4655V27.1552H27.1552V25.4655Z" fill="var(--fill-0, #5B5855)"/>
<path d="M28.8448 25.4655H27.1552V27.1552H28.8448V25.4655Z" fill="var(--fill-0, #5B5855)"/>
<path d="M33.9138 25.4655H32.2241V27.1552H33.9138V25.4655Z" fill="var(--fill-0, #5B5855)"/>
<path d="M38.9828 25.4655H37.2931V27.1552H38.9828V25.4655Z" fill="var(--fill-0, #5B5855)"/>
<path d="M45.7414 25.4655H44.0517V27.1552H45.7414V25.4655Z" fill="var(--fill-0, #5B5855)"/>
<path d="M50.8103 25.4655H49.1207V27.1552H50.8103V25.4655Z" fill="var(--fill-0, #5B5855)"/>
<path d="M52.5 25.4655H50.8103V27.1552H52.5V25.4655Z" fill="var(--fill-0, #5B5855)"/>
<path d="M11.9483 27.1552H10.2586V28.8448H11.9483V27.1552Z" fill="var(--fill-0, #5B5855)"/>
<path d="M15.3276 27.1552H13.6379V28.8448H15.3276V27.1552Z" fill="var(--fill-0, #5B5855)"/>
<path d="M27.1552 27.1552H25.4655V28.8448H27.1552V27.1552Z" fill="var(--fill-0, #5B5855)"/>
<path d="M32.2241 27.1552H30.5345V28.8448H32.2241V27.1552Z" fill="var(--fill-0, #5B5855)"/>
<path d="M33.9138 27.1552H32.2241V28.8448H33.9138V27.1552Z" fill="var(--fill-0, #5B5855)"/>
<path d="M37.2931 27.1552H35.6034V28.8448H37.2931V27.1552Z" fill="var(--fill-0, #5B5855)"/>
<path d="M38.9828 27.1552H37.2931V28.8448H38.9828V27.1552Z" fill="var(--fill-0, #5B5855)"/>
<path d="M40.6724 27.1552H38.9828V28.8448H40.6724V27.1552Z" fill="var(--fill-0, #5B5855)"/>
<path d="M42.3621 27.1552H40.6724V28.8448H42.3621V27.1552Z" fill="var(--fill-0, #5B5855)"/>
<path d="M44.0517 27.1552H42.3621V28.8448H44.0517V27.1552Z" fill="var(--fill-0, #5B5855)"/>
<path d="M45.7414 27.1552H44.0517V28.8448H45.7414V27.1552Z" fill="var(--fill-0, #5B5855)"/>
<path d="M49.1207 27.1552H47.431V28.8448H49.1207V27.1552Z" fill="var(--fill-0, #5B5855)"/>
<path d="M5.18966 28.8448H3.5V30.5345H5.18966V28.8448Z" fill="var(--fill-0, #5B5855)"/>
<path d="M8.56897 28.8448H6.87931V30.5345H8.56897V28.8448Z" fill="var(--fill-0, #5B5855)"/>
<path d="M11.9483 28.8448H10.2586V30.5345H11.9483V28.8448Z" fill="var(--fill-0, #5B5855)"/>
<path d="M13.6379 28.8448H11.9483V30.5345H13.6379V28.8448Z" fill="var(--fill-0, #5B5855)"/>
<path d="M17.0172 28.8448H15.3276V30.5345H17.0172V28.8448Z" fill="var(--fill-0, #5B5855)"/>
<path d="M22.0862 28.8448H20.3966V30.5345H22.0862V28.8448Z" fill="var(--fill-0, #5B5855)"/>
<path d="M25.4655 28.8448H23.7759V30.5345H25.4655V28.8448Z" fill="var(--fill-0, #5B5855)"/>
<path d="M30.5345 28.8448H28.8448V30.5345H30.5345V28.8448Z" fill="var(--fill-0, #5B5855)"/>
<path d="M35.6034 28.8448H33.9138V30.5345H35.6034V28.8448Z" fill="var(--fill-0, #5B5855)"/>
<path d="M38.9828 28.8448H37.2931V30.5345H38.9828V28.8448Z" fill="var(--fill-0, #5B5855)"/>
<path d="M44.0517 28.8448H42.3621V30.5345H44.0517V28.8448Z" fill="var(--fill-0, #5B5855)"/>
<path d="M49.1207 28.8448H47.431V30.5345H49.1207V28.8448Z" fill="var(--fill-0, #5B5855)"/>
<path d="M52.5 28.8448H50.8103V30.5345H52.5V28.8448Z" fill="var(--fill-0, #5B5855)"/>
<path d="M5.18966 30.5345H3.5V32.2241H5.18966V30.5345Z" fill="var(--fill-0, #5B5855)"/>
<path d="M6.87931 30.5345H5.18966V32.2241H6.87931V30.5345Z" fill="var(--fill-0, #5B5855)"/>
<path d="M8.56897 30.5345H6.87931V32.2241H8.56897V30.5345Z" fill="var(--fill-0, #5B5855)"/>
<path d="M10.2586 30.5345H8.56897V32.2241H10.2586V30.5345Z" fill="var(--fill-0, #5B5855)"/>
<path d="M11.9483 30.5345H10.2586V32.2241H11.9483V30.5345Z" fill="var(--fill-0, #5B5855)"/>
<path d="M13.6379 30.5345H11.9483V32.2241H13.6379V30.5345Z" fill="var(--fill-0, #5B5855)"/>
<path d="M15.3276 30.5345H13.6379V32.2241H15.3276V30.5345Z" fill="var(--fill-0, #5B5855)"/>
<path d="M17.0172 30.5345H15.3276V32.2241H17.0172V30.5345Z" fill="var(--fill-0, #5B5855)"/>
<path d="M20.3966 30.5345H18.7069V32.2241H20.3966V30.5345Z" fill="var(--fill-0, #5B5855)"/>
<path d="M22.0862 30.5345H20.3966V32.2241H22.0862V30.5345Z" fill="var(--fill-0, #5B5855)"/>
<path d="M23.7759 30.5345H22.0862V32.2241H23.7759V30.5345Z" fill="var(--fill-0, #5B5855)"/>
<path d="M25.4655 30.5345H23.7759V32.2241H25.4655V30.5345Z" fill="var(--fill-0, #5B5855)"/>
<path d="M27.1552 30.5345H25.4655V32.2241H27.1552V30.5345Z" fill="var(--fill-0, #5B5855)"/>
<path d="M28.8448 30.5345H27.1552V32.2241H28.8448V30.5345Z" fill="var(--fill-0, #5B5855)"/>
<path d="M32.2241 30.5345H30.5345V32.2241H32.2241V30.5345Z" fill="var(--fill-0, #5B5855)"/>
<path d="M33.9138 30.5345H32.2241V32.2241H33.9138V30.5345Z" fill="var(--fill-0, #5B5855)"/>
<path d="M38.9828 30.5345H37.2931V32.2241H38.9828V30.5345Z" fill="var(--fill-0, #5B5855)"/>
<path d="M50.8103 30.5345H49.1207V32.2241H50.8103V30.5345Z" fill="var(--fill-0, #5B5855)"/>
<path d="M5.18966 32.2241H3.5V33.9138H5.18966V32.2241Z" fill="var(--fill-0, #5B5855)"/>
<path d="M10.2586 32.2241H8.56897V33.9138H10.2586V32.2241Z" fill="var(--fill-0, #5B5855)"/>
<path d="M18.7069 32.2241H17.0172V33.9138H18.7069V32.2241Z" fill="var(--fill-0, #5B5855)"/>
<path d="M20.3966 32.2241H18.7069V33.9138H20.3966V32.2241Z" fill="var(--fill-0, #5B5855)"/>
<path d="M23.7759 32.2241H22.0862V33.9138H23.7759V32.2241Z" fill="var(--fill-0, #5B5855)"/>
<path d="M28.8448 32.2241H27.1552V33.9138H28.8448V32.2241Z" fill="var(--fill-0, #5B5855)"/>
<path d="M32.2241 32.2241H30.5345V33.9138H32.2241V32.2241Z" fill="var(--fill-0, #5B5855)"/>
<path d="M37.2931 32.2241H35.6034V33.9138H37.2931V32.2241Z" fill="var(--fill-0, #5B5855)"/>
<path d="M42.3621 32.2241H40.6724V33.9138H42.3621V32.2241Z" fill="var(--fill-0, #5B5855)"/>
<path d="M44.0517 32.2241H42.3621V33.9138H44.0517V32.2241Z" fill="var(--fill-0, #5B5855)"/>
<path d="M45.7414 32.2241H44.0517V33.9138H45.7414V32.2241Z" fill="var(--fill-0, #5B5855)"/>
<path d="M47.431 32.2241H45.7414V33.9138H47.431V32.2241Z" fill="var(--fill-0, #5B5855)"/>
<path d="M49.1207 32.2241H47.431V33.9138H49.1207V32.2241Z" fill="var(--fill-0, #5B5855)"/>
<path d="M50.8103 32.2241H49.1207V33.9138H50.8103V32.2241Z" fill="var(--fill-0, #5B5855)"/>
<path d="M52.5 32.2241H50.8103V33.9138H52.5V32.2241Z" fill="var(--fill-0, #5B5855)"/>
<path d="M5.18966 33.9138H3.5V35.6034H5.18966V33.9138Z" fill="var(--fill-0, #5B5855)"/>
<path d="M11.9483 33.9138H10.2586V35.6034H11.9483V33.9138Z" fill="var(--fill-0, #5B5855)"/>
<path d="M15.3276 33.9138H13.6379V35.6034H15.3276V33.9138Z" fill="var(--fill-0, #5B5855)"/>
<path d="M17.0172 33.9138H15.3276V35.6034H17.0172V33.9138Z" fill="var(--fill-0, #5B5855)"/>
<path d="M20.3966 33.9138H18.7069V35.6034H20.3966V33.9138Z" fill="var(--fill-0, #5B5855)"/>
<path d="M22.0862 33.9138H20.3966V35.6034H22.0862V33.9138Z" fill="var(--fill-0, #5B5855)"/>
<path d="M28.8448 33.9138H27.1552V35.6034H28.8448V33.9138Z" fill="var(--fill-0, #5B5855)"/>
<path d="M32.2241 33.9138H30.5345V35.6034H32.2241V33.9138Z" fill="var(--fill-0, #5B5855)"/>
<path d="M33.9138 33.9138H32.2241V35.6034H33.9138V33.9138Z" fill="var(--fill-0, #5B5855)"/>
<path d="M37.2931 33.9138H35.6034V35.6034H37.2931V33.9138Z" fill="var(--fill-0, #5B5855)"/>
<path d="M40.6724 33.9138H38.9828V35.6034H40.6724V33.9138Z" fill="var(--fill-0, #5B5855)"/>
<path d="M42.3621 33.9138H40.6724V35.6034H42.3621V33.9138Z" fill="var(--fill-0, #5B5855)"/>
<path d="M45.7414 33.9138H44.0517V35.6034H45.7414V33.9138Z" fill="var(--fill-0, #5B5855)"/>
<path d="M50.8103 33.9138H49.1207V35.6034H50.8103V33.9138Z" fill="var(--fill-0, #5B5855)"/>
<path d="M6.87931 35.6034H5.18966V37.2931H6.87931V35.6034Z" fill="var(--fill-0, #5B5855)"/>
<path d="M10.2586 35.6034H8.56897V37.2931H10.2586V35.6034Z" fill="var(--fill-0, #5B5855)"/>
<path d="M11.9483 35.6034H10.2586V37.2931H11.9483V35.6034Z" fill="var(--fill-0, #5B5855)"/>
<path d="M17.0172 35.6034H15.3276V37.2931H17.0172V35.6034Z" fill="var(--fill-0, #5B5855)"/>
<path d="M20.3966 35.6034H18.7069V37.2931H20.3966V35.6034Z" fill="var(--fill-0, #5B5855)"/>
<path d="M25.4655 35.6034H23.7759V37.2931H25.4655V35.6034Z" fill="var(--fill-0, #5B5855)"/>
<path d="M28.8448 35.6034H27.1552V37.2931H28.8448V35.6034Z" fill="var(--fill-0, #5B5855)"/>
<path d="M33.9138 35.6034H32.2241V37.2931H33.9138V35.6034Z" fill="var(--fill-0, #5B5855)"/>
<path d="M35.6034 35.6034H33.9138V37.2931H35.6034V35.6034Z" fill="var(--fill-0, #5B5855)"/>
<path d="M38.9828 35.6034H37.2931V37.2931H38.9828V35.6034Z" fill="var(--fill-0, #5B5855)"/>
<path d="M40.6724 35.6034H38.9828V37.2931H40.6724V35.6034Z" fill="var(--fill-0, #5B5855)"/>
<path d="M42.3621 35.6034H40.6724V37.2931H42.3621V35.6034Z" fill="var(--fill-0, #5B5855)"/>
<path d="M44.0517 35.6034H42.3621V37.2931H44.0517V35.6034Z" fill="var(--fill-0, #5B5855)"/>
<path d="M45.7414 35.6034H44.0517V37.2931H45.7414V35.6034Z" fill="var(--fill-0, #5B5855)"/>
<path d="M6.87931 37.2931H5.18966V38.9828H6.87931V37.2931Z" fill="var(--fill-0, #5B5855)"/>
<path d="M10.2586 37.2931H8.56897V38.9828H10.2586V37.2931Z" fill="var(--fill-0, #5B5855)"/>
<path d="M15.3276 37.2931H13.6379V38.9828H15.3276V37.2931Z" fill="var(--fill-0, #5B5855)"/>
<path d="M17.0172 37.2931H15.3276V38.9828H17.0172V37.2931Z" fill="var(--fill-0, #5B5855)"/>
<path d="M22.0862 37.2931H20.3966V38.9828H22.0862V37.2931Z" fill="var(--fill-0, #5B5855)"/>
<path d="M23.7759 37.2931H22.0862V38.9828H23.7759V37.2931Z" fill="var(--fill-0, #5B5855)"/>
<path d="M28.8448 37.2931H27.1552V38.9828H28.8448V37.2931Z" fill="var(--fill-0, #5B5855)"/>
<path d="M32.2241 37.2931H30.5345V38.9828H32.2241V37.2931Z" fill="var(--fill-0, #5B5855)"/>
<path d="M33.9138 37.2931H32.2241V38.9828H33.9138V37.2931Z" fill="var(--fill-0, #5B5855)"/>
<path d="M37.2931 37.2931H35.6034V38.9828H37.2931V37.2931Z" fill="var(--fill-0, #5B5855)"/>
<path d="M38.9828 37.2931H37.2931V38.9828H38.9828V37.2931Z" fill="var(--fill-0, #5B5855)"/>
<path d="M40.6724 37.2931H38.9828V38.9828H40.6724V37.2931Z" fill="var(--fill-0, #5B5855)"/>
<path d="M42.3621 37.2931H40.6724V38.9828H42.3621V37.2931Z" fill="var(--fill-0, #5B5855)"/>
<path d="M44.0517 37.2931H42.3621V38.9828H44.0517V37.2931Z" fill="var(--fill-0, #5B5855)"/>
<path d="M45.7414 37.2931H44.0517V38.9828H45.7414V37.2931Z" fill="var(--fill-0, #5B5855)"/>
<path d="M49.1207 37.2931H47.431V38.9828H49.1207V37.2931Z" fill="var(--fill-0, #5B5855)"/>
<path d="M52.5 37.2931H50.8103V38.9828H52.5V37.2931Z" fill="var(--fill-0, #5B5855)"/>
<path d="M18.7069 38.9828H17.0172V40.6724H18.7069V38.9828Z" fill="var(--fill-0, #5B5855)"/>
<path d="M23.7759 38.9828H22.0862V40.6724H23.7759V38.9828Z" fill="var(--fill-0, #5B5855)"/>
<path d="M25.4655 38.9828H23.7759V40.6724H25.4655V38.9828Z" fill="var(--fill-0, #5B5855)"/>
<path d="M37.2931 38.9828H35.6034V40.6724H37.2931V38.9828Z" fill="var(--fill-0, #5B5855)"/>
<path d="M38.9828 38.9828H37.2931V40.6724H38.9828V38.9828Z" fill="var(--fill-0, #5B5855)"/>
<path d="M45.7414 38.9828H44.0517V40.6724H45.7414V38.9828Z" fill="var(--fill-0, #5B5855)"/>
<path d="M47.431 38.9828H45.7414V40.6724H47.431V38.9828Z" fill="var(--fill-0, #5B5855)"/>
<path d="M49.1207 38.9828H47.431V40.6724H49.1207V38.9828Z" fill="var(--fill-0, #5B5855)"/>
<path d="M50.8103 38.9828H49.1207V40.6724H50.8103V38.9828Z" fill="var(--fill-0, #5B5855)"/>
<path d="M5.18966 40.6724H3.5V42.3621H5.18966V40.6724Z" fill="var(--fill-0, #5B5855)"/>
<path d="M6.87931 40.6724H5.18966V42.3621H6.87931V40.6724Z" fill="var(--fill-0, #5B5855)"/>
<path d="M8.56897 40.6724H6.87931V42.3621H8.56897V40.6724Z" fill="var(--fill-0, #5B5855)"/>
<path d="M10.2586 40.6724H8.56897V42.3621H10.2586V40.6724Z" fill="var(--fill-0, #5B5855)"/>
<path d="M11.9483 40.6724H10.2586V42.3621H11.9483V40.6724Z" fill="var(--fill-0, #5B5855)"/>
<path d="M13.6379 40.6724H11.9483V42.3621H13.6379V40.6724Z" fill="var(--fill-0, #5B5855)"/>
<path d="M15.3276 40.6724H13.6379V42.3621H15.3276V40.6724Z" fill="var(--fill-0, #5B5855)"/>
<path d="M22.0862 40.6724H20.3966V42.3621H22.0862V40.6724Z" fill="var(--fill-0, #5B5855)"/>
<path d="M25.4655 40.6724H23.7759V42.3621H25.4655V40.6724Z" fill="var(--fill-0, #5B5855)"/>
<path d="M27.1552 40.6724H25.4655V42.3621H27.1552V40.6724Z" fill="var(--fill-0, #5B5855)"/>
<path d="M38.9828 40.6724H37.2931V42.3621H38.9828V40.6724Z" fill="var(--fill-0, #5B5855)"/>
<path d="M42.3621 40.6724H40.6724V42.3621H42.3621V40.6724Z" fill="var(--fill-0, #5B5855)"/>
<path d="M45.7414 40.6724H44.0517V42.3621H45.7414V40.6724Z" fill="var(--fill-0, #5B5855)"/>
<path d="M50.8103 40.6724H49.1207V42.3621H50.8103V40.6724Z" fill="var(--fill-0, #5B5855)"/>
<path d="M5.18966 42.3621H3.5V44.0517H5.18966V42.3621Z" fill="var(--fill-0, #5B5855)"/>
<path d="M15.3276 42.3621H13.6379V44.0517H15.3276V42.3621Z" fill="var(--fill-0, #5B5855)"/>
<path d="M20.3966 42.3621H18.7069V44.0517H20.3966V42.3621Z" fill="var(--fill-0, #5B5855)"/>
<path d="M22.0862 42.3621H20.3966V44.0517H22.0862V42.3621Z" fill="var(--fill-0, #5B5855)"/>
<path d="M27.1552 42.3621H25.4655V44.0517H27.1552V42.3621Z" fill="var(--fill-0, #5B5855)"/>
<path d="M30.5345 42.3621H28.8448V44.0517H30.5345V42.3621Z" fill="var(--fill-0, #5B5855)"/>
<path d="M32.2241 42.3621H30.5345V44.0517H32.2241V42.3621Z" fill="var(--fill-0, #5B5855)"/>
<path d="M37.2931 42.3621H35.6034V44.0517H37.2931V42.3621Z" fill="var(--fill-0, #5B5855)"/>
<path d="M38.9828 42.3621H37.2931V44.0517H38.9828V42.3621Z" fill="var(--fill-0, #5B5855)"/>
<path d="M45.7414 42.3621H44.0517V44.0517H45.7414V42.3621Z" fill="var(--fill-0, #5B5855)"/>
<path d="M49.1207 42.3621H47.431V44.0517H49.1207V42.3621Z" fill="var(--fill-0, #5B5855)"/>
<path d="M52.5 42.3621H50.8103V44.0517H52.5V42.3621Z" fill="var(--fill-0, #5B5855)"/>
<path d="M5.18966 44.0517H3.5V45.7414H5.18966V44.0517Z" fill="var(--fill-0, #5B5855)"/>
<path d="M8.56897 44.0517H6.87931V45.7414H8.56897V44.0517Z" fill="var(--fill-0, #5B5855)"/>
<path d="M10.2586 44.0517H8.56897V45.7414H10.2586V44.0517Z" fill="var(--fill-0, #5B5855)"/>
<path d="M11.9483 44.0517H10.2586V45.7414H11.9483V44.0517Z" fill="var(--fill-0, #5B5855)"/>
<path d="M15.3276 44.0517H13.6379V45.7414H15.3276V44.0517Z" fill="var(--fill-0, #5B5855)"/>
<path d="M18.7069 44.0517H17.0172V45.7414H18.7069V44.0517Z" fill="var(--fill-0, #5B5855)"/>
<path d="M20.3966 44.0517H18.7069V45.7414H20.3966V44.0517Z" fill="var(--fill-0, #5B5855)"/>
<path d="M22.0862 44.0517H20.3966V45.7414H22.0862V44.0517Z" fill="var(--fill-0, #5B5855)"/>
<path d="M23.7759 44.0517H22.0862V45.7414H23.7759V44.0517Z" fill="var(--fill-0, #5B5855)"/>
<path d="M27.1552 44.0517H25.4655V45.7414H27.1552V44.0517Z" fill="var(--fill-0, #5B5855)"/>
<path d="M33.9138 44.0517H32.2241V45.7414H33.9138V44.0517Z" fill="var(--fill-0, #5B5855)"/>
<path d="M35.6034 44.0517H33.9138V45.7414H35.6034V44.0517Z" fill="var(--fill-0, #5B5855)"/>
<path d="M37.2931 44.0517H35.6034V45.7414H37.2931V44.0517Z" fill="var(--fill-0, #5B5855)"/>
<path d="M38.9828 44.0517H37.2931V45.7414H38.9828V44.0517Z" fill="var(--fill-0, #5B5855)"/>
<path d="M40.6724 44.0517H38.9828V45.7414H40.6724V44.0517Z" fill="var(--fill-0, #5B5855)"/>
<path d="M42.3621 44.0517H40.6724V45.7414H42.3621V44.0517Z" fill="var(--fill-0, #5B5855)"/>
<path d="M44.0517 44.0517H42.3621V45.7414H44.0517V44.0517Z" fill="var(--fill-0, #5B5855)"/>
<path d="M45.7414 44.0517H44.0517V45.7414H45.7414V44.0517Z" fill="var(--fill-0, #5B5855)"/>
<path d="M49.1207 44.0517H47.431V45.7414H49.1207V44.0517Z" fill="var(--fill-0, #5B5855)"/>
<path d="M52.5 44.0517H50.8103V45.7414H52.5V44.0517Z" fill="var(--fill-0, #5B5855)"/>
<path d="M5.18966 45.7414H3.5V47.431H5.18966V45.7414Z" fill="var(--fill-0, #5B5855)"/>
<path d="M8.56897 45.7414H6.87931V47.431H8.56897V45.7414Z" fill="var(--fill-0, #5B5855)"/>
<path d="M10.2586 45.7414H8.56897V47.431H10.2586V45.7414Z" fill="var(--fill-0, #5B5855)"/>
<path d="M11.9483 45.7414H10.2586V47.431H11.9483V45.7414Z" fill="var(--fill-0, #5B5855)"/>
<path d="M15.3276 45.7414H13.6379V47.431H15.3276V45.7414Z" fill="var(--fill-0, #5B5855)"/>
<path d="M23.7759 45.7414H22.0862V47.431H23.7759V45.7414Z" fill="var(--fill-0, #5B5855)"/>
<path d="M27.1552 45.7414H25.4655V47.431H27.1552V45.7414Z" fill="var(--fill-0, #5B5855)"/>
<path d="M32.2241 45.7414H30.5345V47.431H32.2241V45.7414Z" fill="var(--fill-0, #5B5855)"/>
<path d="M35.6034 45.7414H33.9138V47.431H35.6034V45.7414Z" fill="var(--fill-0, #5B5855)"/>
<path d="M37.2931 45.7414H35.6034V47.431H37.2931V45.7414Z" fill="var(--fill-0, #5B5855)"/>
<path d="M38.9828 45.7414H37.2931V47.431H38.9828V45.7414Z" fill="var(--fill-0, #5B5855)"/>
<path d="M40.6724 45.7414H38.9828V47.431H40.6724V45.7414Z" fill="var(--fill-0, #5B5855)"/>
<path d="M42.3621 45.7414H40.6724V47.431H42.3621V45.7414Z" fill="var(--fill-0, #5B5855)"/>
<path d="M45.7414 45.7414H44.0517V47.431H45.7414V45.7414Z" fill="var(--fill-0, #5B5855)"/>
<path d="M50.8103 45.7414H49.1207V47.431H50.8103V45.7414Z" fill="var(--fill-0, #5B5855)"/>
<path d="M5.18966 47.431H3.5V49.1207H5.18966V47.431Z" fill="var(--fill-0, #5B5855)"/>
<path d="M8.56897 47.431H6.87931V49.1207H8.56897V47.431Z" fill="var(--fill-0, #5B5855)"/>
<path d="M10.2586 47.431H8.56897V49.1207H10.2586V47.431Z" fill="var(--fill-0, #5B5855)"/>
<path d="M11.9483 47.431H10.2586V49.1207H11.9483V47.431Z" fill="var(--fill-0, #5B5855)"/>
<path d="M15.3276 47.431H13.6379V49.1207H15.3276V47.431Z" fill="var(--fill-0, #5B5855)"/>
<path d="M18.7069 47.431H17.0172V49.1207H18.7069V47.431Z" fill="var(--fill-0, #5B5855)"/>
<path d="M20.3966 47.431H18.7069V49.1207H20.3966V47.431Z" fill="var(--fill-0, #5B5855)"/>
<path d="M22.0862 47.431H20.3966V49.1207H22.0862V47.431Z" fill="var(--fill-0, #5B5855)"/>
<path d="M27.1552 47.431H25.4655V49.1207H27.1552V47.431Z" fill="var(--fill-0, #5B5855)"/>
<path d="M28.8448 47.431H27.1552V49.1207H28.8448V47.431Z" fill="var(--fill-0, #5B5855)"/>
<path d="M30.5345 47.431H28.8448V49.1207H30.5345V47.431Z" fill="var(--fill-0, #5B5855)"/>
<path d="M33.9138 47.431H32.2241V49.1207H33.9138V47.431Z" fill="var(--fill-0, #5B5855)"/>
<path d="M37.2931 47.431H35.6034V49.1207H37.2931V47.431Z" fill="var(--fill-0, #5B5855)"/>
<path d="M38.9828 47.431H37.2931V49.1207H38.9828V47.431Z" fill="var(--fill-0, #5B5855)"/>
<path d="M49.1207 47.431H47.431V49.1207H49.1207V47.431Z" fill="var(--fill-0, #5B5855)"/>
<path d="M50.8103 47.431H49.1207V49.1207H50.8103V47.431Z" fill="var(--fill-0, #5B5855)"/>
<path d="M5.18966 49.1207H3.5V50.8103H5.18966V49.1207Z" fill="var(--fill-0, #5B5855)"/>
<path d="M15.3276 49.1207H13.6379V50.8103H15.3276V49.1207Z" fill="var(--fill-0, #5B5855)"/>
<path d="M18.7069 49.1207H17.0172V50.8103H18.7069V49.1207Z" fill="var(--fill-0, #5B5855)"/>
<path d="M20.3966 49.1207H18.7069V50.8103H20.3966V49.1207Z" fill="var(--fill-0, #5B5855)"/>
<path d="M27.1552 49.1207H25.4655V50.8103H27.1552V49.1207Z" fill="var(--fill-0, #5B5855)"/>
<path d="M33.9138 49.1207H32.2241V50.8103H33.9138V49.1207Z" fill="var(--fill-0, #5B5855)"/>
<path d="M38.9828 49.1207H37.2931V50.8103H38.9828V49.1207Z" fill="var(--fill-0, #5B5855)"/>
<path d="M45.7414 49.1207H44.0517V50.8103H45.7414V49.1207Z" fill="var(--fill-0, #5B5855)"/>
<path d="M47.431 49.1207H45.7414V50.8103H47.431V49.1207Z" fill="var(--fill-0, #5B5855)"/>
<path d="M49.1207 49.1207H47.431V50.8103H49.1207V49.1207Z" fill="var(--fill-0, #5B5855)"/>
<path d="M5.18966 50.8103H3.5V52.5H5.18966V50.8103Z" fill="var(--fill-0, #5B5855)"/>
<path d="M6.87931 50.8103H5.18966V52.5H6.87931V50.8103Z" fill="var(--fill-0, #5B5855)"/>
<path d="M8.56897 50.8103H6.87931V52.5H8.56897V50.8103Z" fill="var(--fill-0, #5B5855)"/>
<path d="M10.2586 50.8103H8.56897V52.5H10.2586V50.8103Z" fill="var(--fill-0, #5B5855)"/>
<path d="M11.9483 50.8103H10.2586V52.5H11.9483V50.8103Z" fill="var(--fill-0, #5B5855)"/>
<path d="M13.6379 50.8103H11.9483V52.5H13.6379V50.8103Z" fill="var(--fill-0, #5B5855)"/>
<path d="M15.3276 50.8103H13.6379V52.5H15.3276V50.8103Z" fill="var(--fill-0, #5B5855)"/>
<path d="M18.7069 50.8103H17.0172V52.5H18.7069V50.8103Z" fill="var(--fill-0, #5B5855)"/>
<path d="M23.7759 50.8103H22.0862V52.5H23.7759V50.8103Z" fill="var(--fill-0, #5B5855)"/>
<path d="M25.4655 50.8103H23.7759V52.5H25.4655V50.8103Z" fill="var(--fill-0, #5B5855)"/>
<path d="M27.1552 50.8103H25.4655V52.5H27.1552V50.8103Z" fill="var(--fill-0, #5B5855)"/>
<path d="M28.8448 50.8103H27.1552V52.5H28.8448V50.8103Z" fill="var(--fill-0, #5B5855)"/>
<path d="M30.5345 50.8103H28.8448V52.5H30.5345V50.8103Z" fill="var(--fill-0, #5B5855)"/>
<path d="M35.6034 50.8103H33.9138V52.5H35.6034V50.8103Z" fill="var(--fill-0, #5B5855)"/>
<path d="M49.1207 50.8103H47.431V52.5H49.1207V50.8103Z" fill="var(--fill-0, #5B5855)"/>
<path d="M50.8103 50.8103H49.1207V52.5H50.8103V50.8103Z" fill="var(--fill-0, #5B5855)"/>
</g>
</g>
</svg>
