<svg preserveAspectRatio="none" width="100%" height="100%" overflow="visible" style="display: block;" viewBox="0 0 97.7795 101.501" fill="none" xmlns="http://www.w3.org/2000/svg">
<g id="Star 4">
<g filter="url(#filter0_ii_73_357)">
<path d="M42.1449 1.93416C46.2717 -0.644722 51.5078 -0.644721 55.6346 1.93417L60.521 4.98774C62.2882 6.09209 64.2996 6.74562 66.3784 6.89092L72.1265 7.29269C76.981 7.632 81.217 10.7097 83.0399 15.2217L85.1982 20.5643C85.9788 22.4965 87.2219 24.2074 88.8183 25.5469L93.2324 29.2505C96.9603 32.3784 98.5784 37.3583 97.4009 42.08L96.0068 47.6709C95.5026 49.6929 95.5026 51.8077 96.0068 53.8297L97.4009 59.4206C98.5784 64.1423 96.9603 69.1221 93.2324 72.25L88.8183 75.9537C87.2219 77.2931 85.9788 79.0041 85.1982 80.9363L83.0399 86.2788C81.217 90.7909 76.981 93.8686 72.1265 94.2079L66.3784 94.6097C64.2996 94.755 62.2882 95.4085 60.521 96.5128L55.6346 99.5664C51.5078 102.145 46.2717 102.145 42.1449 99.5664L37.2585 96.5128C35.4913 95.4085 33.4799 94.755 31.4011 94.6097L25.6531 94.2079C20.7986 93.8686 16.5625 90.7909 14.7397 86.2788L12.5813 80.9363C11.8007 79.0041 10.5577 77.2931 8.96125 75.9537L4.54715 72.25C0.819227 69.1221 -0.798813 64.1423 0.378601 59.4206L1.77274 53.8297C2.27694 51.8077 2.27694 49.6929 1.77274 47.6709L0.3786 42.08C-0.798814 37.3583 0.819227 32.3785 4.54715 29.2505L8.96125 25.5469C10.5577 24.2074 11.8007 22.4965 12.5813 20.5643L14.7397 15.2217C16.5625 10.7097 20.7986 7.632 25.6531 7.29269L31.4011 6.89093C33.4799 6.74562 35.4913 6.09209 37.2585 4.98774L42.1449 1.93416Z" fill="var(--fill-0, #F7CA16)"/>
</g>
<path d="M42.388 2.32275C46.3662 -0.163155 51.4138 -0.163232 55.3919 2.32275L60.2777 5.37646C62.1084 6.5205 64.1925 7.19754 66.346 7.34814L72.0941 7.74951C76.7736 8.07659 80.8573 11.0437 82.6146 15.3931L84.7728 20.7358C85.5815 22.7376 86.8699 24.5102 88.5237 25.8979L92.9378 29.602C96.5313 32.6173 98.0914 37.4176 96.9564 41.9692L95.5618 47.5601C95.0395 49.6548 95.0395 51.8461 95.5618 53.9409L96.9564 59.5317C98.0912 64.0833 96.5314 68.8837 92.9378 71.8989L88.5237 75.603C86.87 76.9906 85.5814 78.7626 84.7728 80.7642L82.6146 86.1069C80.8574 90.4565 76.7737 93.4234 72.0941 93.7505L66.346 94.1528C64.1925 94.3034 62.1084 94.9805 60.2777 96.1245L55.3919 99.1782C51.4139 101.664 46.3661 101.664 42.388 99.1782L37.5013 96.1245C35.6704 94.9804 33.5866 94.3034 31.4329 94.1528L25.6849 93.7505C21.0053 93.4233 16.9215 90.4564 15.1644 86.1069L13.0062 80.7642C12.1975 78.7627 10.9097 76.9906 9.25617 75.603L4.84211 71.8989C1.24849 68.8837 -0.311366 64.0834 0.823554 59.5317L2.21711 53.9409C2.73947 51.8461 2.73947 49.6549 2.21711 47.5601L0.823554 41.9692C-0.31146 37.4175 1.24844 32.6173 4.84211 29.602L9.25617 25.8979C10.91 24.5103 12.1975 22.7375 13.0062 20.7358L15.1644 15.3931C16.9216 11.0437 21.0053 8.07663 25.6849 7.74951L31.4329 7.34814C33.5866 7.1976 35.6705 6.52055 37.5013 5.37646L42.388 2.32275Z" stroke="var(--stroke-0, #FDEF8B)" stroke-width="0.916666"/>
</g>
<defs>
<filter id="filter0_ii_73_357" x="-4.24248" y="-4.24248" width="106.265" height="109.986" filterUnits="userSpaceOnUse" color-interpolation-filters="sRGB">
<feFlood flood-opacity="0" result="BackgroundImageFix"/>
<feBlend mode="normal" in="SourceGraphic" in2="BackgroundImageFix" result="shape"/>
<feColorMatrix in="SourceAlpha" type="matrix" values="0 0 0 0 0 0 0 0 0 0 0 0 0 0 0 0 0 0 127 0" result="hardAlpha"/>
<feOffset dx="4.24248" dy="4.24248"/>
<feGaussianBlur stdDeviation="2.12124"/>
<feComposite in2="hardAlpha" operator="arithmetic" k2="-1" k3="1"/>
<feColorMatrix type="matrix" values="0 0 0 0 0.156863 0 0 0 0 0.0745098 0 0 0 0 0.0156863 0 0 0 0.25 0"/>
<feBlend mode="normal" in2="shape" result="effect1_innerShadow_73_357"/>
<feColorMatrix in="SourceAlpha" type="matrix" values="0 0 0 0 0 0 0 0 0 0 0 0 0 0 0 0 0 0 127 0" result="hardAlpha"/>
<feOffset dx="-4.24248" dy="-4.24248"/>
<feGaussianBlur stdDeviation="2.12124"/>
<feComposite in2="hardAlpha" operator="arithmetic" k2="-1" k3="1"/>
<feColorMatrix type="matrix" values="0 0 0 0 0.156863 0 0 0 0 0.0745098 0 0 0 0 0.0156863 0 0 0 0.25 0"/>
<feBlend mode="normal" in2="effect1_innerShadow_73_357" result="effect2_innerShadow_73_357"/>
</filter>
</defs>
</svg>
