<svg preserveAspectRatio="none" width="100%" height="100%" overflow="visible" style="display: block;" viewBox="0 0 77.9488 80.795" fill="none" xmlns="http://www.w3.org/2000/svg">
<path id="Star 5" d="M33.2598 2.16894C36.756 -0.0158986 41.1922 -0.0157974 44.6885 2.16894L47.7588 4.08789C49.4033 5.11555 51.2755 5.72318 53.21 5.85839L56.8213 6.11132C60.9341 6.39879 64.5231 9.0064 66.0674 12.8291L67.4238 16.1855C68.1502 17.9834 69.3066 19.5759 70.792 20.8223L73.5664 23.1494C76.7246 25.7994 78.095 30.0184 77.0977 34.0185L76.2217 37.5322C75.7526 39.4136 75.7526 41.3813 76.2217 43.2627L77.0977 46.7764C78.095 50.7766 76.7246 54.9955 73.5664 57.6455L70.792 59.9727C69.3066 61.2191 68.1502 62.8115 67.4238 64.6094L66.0674 67.9658C64.5231 71.7885 60.9341 74.3961 56.8213 74.6836L53.21 74.9365C51.2755 75.0717 49.4033 75.6794 47.7588 76.707L44.6885 78.626C41.1922 80.8107 36.756 80.8108 33.2598 78.626L30.1895 76.707C28.5451 75.6795 26.6735 75.0718 24.7393 74.9365L21.127 74.6836C17.0143 74.396 13.4252 71.7884 11.8809 67.9658L10.5254 64.6094C9.79902 62.8114 8.6418 61.2191 7.15626 59.9727L4.38282 57.6455C1.22449 54.9955 -0.145874 50.7767 0.851571 46.7764L1.72755 43.2627C2.19659 41.3814 2.1966 39.4135 1.72755 37.5322L0.851571 34.0185C-0.145841 30.0183 1.22451 25.7994 4.38282 23.1494L7.15626 20.8223C8.6418 19.5758 9.79902 17.9835 10.5254 16.1855L11.8809 12.8291C13.4252 9.0065 17.0143 6.39891 21.127 6.11132L24.7393 5.85839C26.6735 5.72315 28.5451 5.11541 30.1895 4.08789L33.2598 2.16894Z" fill="var(--fill-0, #E7B20B)" stroke="var(--stroke-0, #9F6209)" stroke-width="1.06062"/>
</svg>
