<svg preserveAspectRatio="none" width="100%" height="100%" overflow="visible" style="display: block;" viewBox="0 0 80.0701 82.9162" fill="none" xmlns="http://www.w3.org/2000/svg">
<path id="Star 6" d="M33.7587 2.33015C37.5988 -0.0696035 42.4712 -0.0695806 46.3114 2.33015L49.3817 4.24909C50.8789 5.18473 52.5834 5.73829 54.3446 5.8614L57.9559 6.11335C62.4733 6.4291 66.4149 9.29359 68.1112 13.4923L69.4676 16.8487C70.129 18.4857 71.1825 19.9356 72.535 21.0704L75.3085 23.3975C78.7775 26.3082 80.283 30.9422 79.1874 35.336L78.3114 38.8487C77.8842 40.5618 77.8842 42.3544 78.3114 44.0675L79.1874 47.5801C80.283 51.974 78.7775 56.6079 75.3085 59.5186L72.535 61.8458C71.1825 62.9806 70.129 64.4305 69.4676 66.0675L68.1112 69.4239C66.415 73.6226 62.4733 76.4871 57.9559 76.8028L54.3446 77.0548C52.5834 77.1779 50.8789 77.7314 49.3817 78.6671L46.3114 80.586C42.4712 82.9858 37.5989 82.9858 33.7587 80.586L30.6883 78.6671C29.1911 77.7315 27.4867 77.1779 25.7255 77.0548L22.1141 76.8028C17.5968 76.4871 13.6551 73.6226 11.9589 69.4239L10.6024 66.0675C9.94108 64.4305 8.88754 62.9806 7.53503 61.8458L4.76159 59.5186C1.29261 56.608 -0.212923 51.9739 0.882684 47.5801L1.75866 44.0675C2.18583 42.3544 2.18583 40.5618 1.75866 38.8487L0.882684 35.336C-0.212893 30.9422 1.2926 26.3082 4.76159 23.3975L7.53503 21.0704C8.88754 19.9356 9.94108 18.4857 10.6024 16.8487L11.9589 13.4923C13.6551 9.29357 17.5968 6.4291 22.1141 6.11335L25.7255 5.8614C27.4867 5.73829 29.1911 5.18471 30.6883 4.24909L33.7587 2.33015Z" stroke="var(--stroke-0, #FDF8C4)" stroke-opacity="0.5" stroke-width="1.06062"/>
</svg>
